<svg xmlns="http://www.w3.org/2000/svg" width="1200" height="300" viewBox="0 0 1200 300" role="img" aria-label="Languages: Romanian native, Russian C2, English B2, German A1. Awards: hackathons at UTM 2022 and 2023, Microelectronic Systems contest 2022, Earth Rover Innovation Challenge 2021. Hardware projects: FarmBot, SkyFly, Work Inspector, CyberCar."><title>Languages: Romanian native, Russian C2, English B2, German A1. Awards: hackathons at UTM 2022 and 2023, Microelectronic Systems contest 2022, Earth Rover Innovation Challenge 2021. Hardware projects: FarmBot, SkyFly, Work Inspector, CyberCar.</title><style>
  .sans { font-family: Inter, 'Segoe UI', -apple-system, BlinkMacSystemFont, Helvetica, Arial, sans-serif; }
  .mono { font-family: 'JetBrains Mono', 'SF Mono', ui-monospace, Menlo, Consolas, monospace; letter-spacing: .06em; }
  @keyframes blink { 0%, 49% { opacity: 1; } 50%, 100% { opacity: 0; } }
  @keyframes pulse { 0% { r: 6; opacity: .9; } 100% { r: 18; opacity: 0; } }
  @media (prefers-reduced-motion: reduce) { * { animation: none !important; opacity: 1 !important; } }
</style><rect x="0.5" y=".5" width="388" height="299" rx="18" fill="#FFFFFF" stroke="#D2DED7"/><text x="24" y="44" class="mono" font-size="13" fill="#0B6E4F">01</text><text x="60" y="45" class="sans" font-size="21" font-weight="650" letter-spacing="-.3" fill="#0E1713">Languages</text><line x1="24" y1="120" x2="365" y2="120" stroke="#D2DED7" opacity=".6"/><text x="24" y="98" class="sans" font-size="17" fill="#0E1713">Romanian</text><text x="365" y="98" class="mono" font-size="12" fill="#5C6A63" text-anchor="end">NATIVE</text><rect x="150" y="88" width="16" height="6" rx="3" fill="#0B6E4F"/><rect x="172" y="88" width="16" height="6" rx="3" fill="#0B6E4F"/><rect x="194" y="88" width="16" height="6" rx="3" fill="#0B6E4F"/><rect x="216" y="88" width="16" height="6" rx="3" fill="#0B6E4F"/><rect x="238" y="88" width="16" height="6" rx="3" fill="#0B6E4F"/><rect x="260" y="88" width="16" height="6" rx="3" fill="#0B6E4F"/><line x1="24" y1="172" x2="365" y2="172" stroke="#D2DED7" opacity=".6"/><text x="24" y="150" class="sans" font-size="17" fill="#0E1713">Russian</text><text x="365" y="150" class="mono" font-size="12" fill="#5C6A63" text-anchor="end">C2</text><rect x="150" y="140" width="16" height="6" rx="3" fill="#0B6E4F"/><rect x="172" y="140" width="16" height="6" rx="3" fill="#0B6E4F"/><rect x="194" y="140" width="16" height="6" rx="3" fill="#0B6E4F"/><rect x="216" y="140" width="16" height="6" rx="3" fill="#0B6E4F"/><rect x="238" y="140" width="16" height="6" rx="3" fill="#0B6E4F"/><rect x="260" y="140" width="16" height="6" rx="3" fill="#0B6E4F"/><line x1="24" y1="224" x2="365" y2="224" stroke="#D2DED7" opacity=".6"/><text x="24" y="202" class="sans" font-size="17" fill="#0E1713">English</text><text x="365" y="202" class="mono" font-size="12" fill="#5C6A63" text-anchor="end">B2</text><rect x="150" y="192" width="16" height="6" rx="3" fill="#0B6E4F"/><rect x="172" y="192" width="16" height="6" rx="3" fill="#0B6E4F"/><rect x="194" y="192" width="16" height="6" rx="3" fill="#0B6E4F"/><rect x="216" y="192" width="16" height="6" rx="3" fill="#0B6E4F"/><rect x="238" y="192" width="16" height="6" rx="3" fill="#D2DED7"/><rect x="260" y="192" width="16" height="6" rx="3" fill="#D2DED7"/><line x1="24" y1="276" x2="365" y2="276" stroke="#D2DED7" opacity=".6"/><text x="24" y="254" class="sans" font-size="17" fill="#0E1713">German</text><text x="365" y="254" class="mono" font-size="12" fill="#5C6A63" text-anchor="end">A1</text><rect x="150" y="244" width="16" height="6" rx="3" fill="#0B6E4F"/><rect x="172" y="244" width="16" height="6" rx="3" fill="#D2DED7"/><rect x="194" y="244" width="16" height="6" rx="3" fill="#D2DED7"/><rect x="216" y="244" width="16" height="6" rx="3" fill="#D2DED7"/><rect x="238" y="244" width="16" height="6" rx="3" fill="#D2DED7"/><rect x="260" y="244" width="16" height="6" rx="3" fill="#D2DED7"/><rect x="405.5" y=".5" width="388" height="299" rx="18" fill="#FFFFFF" stroke="#D2DED7"/><text x="429" y="44" class="mono" font-size="13" fill="#0B6E4F">02</text><text x="465" y="45" class="sans" font-size="21" font-weight="650" letter-spacing="-.3" fill="#0E1713">Awards</text><line x1="429" y1="120" x2="770" y2="120" stroke="#D2DED7" opacity=".6"/><text x="429" y="98" class="sans" font-size="16" fill="#0E1713">Hackathon IX, UTM</text><text x="770" y="98" class="mono" font-size="12" fill="#5C6A63" text-anchor="end">2023</text><line x1="429" y1="172" x2="770" y2="172" stroke="#D2DED7" opacity=".6"/><text x="429" y="150" class="sans" font-size="16" fill="#0E1713">Hackathon, UTM</text><text x="770" y="150" class="mono" font-size="12" fill="#5C6A63" text-anchor="end">2022</text><line x1="429" y1="224" x2="770" y2="224" stroke="#D2DED7" opacity=".6"/><text x="429" y="202" class="sans" font-size="16" fill="#0E1713">Microelectronic Systems contest</text><text x="770" y="202" class="mono" font-size="12" fill="#5C6A63" text-anchor="end">2022</text><line x1="429" y1="276" x2="770" y2="276" stroke="#D2DED7" opacity=".6"/><text x="429" y="254" class="sans" font-size="16" fill="#0E1713">Earth Rover Innovation Challenge</text><text x="770" y="254" class="mono" font-size="12" fill="#5C6A63" text-anchor="end">2021</text><rect x="810.5" y=".5" width="388" height="299" rx="18" fill="#FFFFFF" stroke="#D2DED7"/><text x="834" y="44" class="mono" font-size="13" fill="#0B6E4F">03</text><text x="870" y="45" class="sans" font-size="21" font-weight="650" letter-spacing="-.3" fill="#0E1713">Hardware &amp; IoT</text><line x1="834" y1="120" x2="1175" y2="120" stroke="#D2DED7" opacity=".6"/><text x="834" y="98" class="sans" font-size="16" fill="#0E1713">FarmBot<tspan fill="#5C6A63">  ·  automated crop growing</tspan></text><line x1="834" y1="172" x2="1175" y2="172" stroke="#D2DED7" opacity=".6"/><text x="834" y="150" class="sans" font-size="16" fill="#0E1713">SkyFly<tspan fill="#5C6A63">  ·  drone control app</tspan></text><line x1="834" y1="224" x2="1175" y2="224" stroke="#D2DED7" opacity=".6"/><text x="834" y="202" class="sans" font-size="16" fill="#0E1713">Work Inspector<tspan fill="#5C6A63">  ·  room sensor monitoring</tspan></text><line x1="834" y1="276" x2="1175" y2="276" stroke="#D2DED7" opacity=".6"/><text x="834" y="254" class="sans" font-size="16" fill="#0E1713">CyberCar<tspan fill="#5C6A63">  ·  Bluetooth-driven car</tspan></text></svg>
